<?xml version="1.0" encoding="UTF-8"?>
<svg id="Camada_1" data-name="Camada 1" xmlns="http://www.w3.org/2000/svg" viewBox="0 0 14.61 6.97">
  <defs>
    <style>
      .cls-1 {
        fill: #cc1236;
        stroke-width: 0px;
      }
    </style>
  </defs>
  <g>
    <path class="cls-1" d="M1.41,5.59c0,.12.03.25.1.35.14.21.39.33.63.29.2-.03.38-.18.47-.37.04-.08.05-.16.05-.25,0-.54,0-3.28,0-4.22,0-.38-.32-.69-.7-.66-.02,0-.03,0-.04,0-.17.03-.33.18-.43.34-.07.12-.11.24-.08.31"/>
    <path class="cls-1" d="M0,4.9c0,.08.02.17.07.24.1.14.26.22.42.2.14-.02.25-.12.31-.25.02-.05.03-.11.03-.17,0-.36,0-2.22,0-2.85,0-.26-.22-.47-.47-.44-.01,0-.02,0-.03,0-.12.02-.22.12-.29.23-.05.08-.07.16-.06.21"/>
    <path class="cls-1" d="M3.22,6.14c0,.16.04.31.13.45.18.27.49.42.79.37.25-.04.47-.22.59-.47.05-.1.06-.21.06-.32,0-.68,0-4.15,0-5.34C4.79.35,4.39-.04,3.91,0c-.02,0-.04,0-.05,0-.22.04-.42.23-.54.43-.09.15-.13.3-.1.39"/>
  </g>
  <g>
    <path class="cls-1" d="M13.2,1.38c0-.12-.03-.25-.1-.35-.14-.21-.39-.33-.63-.29-.2.03-.38.18-.47.37-.04.08-.05.16-.05.25,0,.54,0,3.28,0,4.22,0,.38.32.69.7.66.02,0,.03,0,.04,0,.17-.03.33-.18.43-.34.07-.12.11-.24.08-.31"/>
    <path class="cls-1" d="M14.6,2.06c0-.08-.02-.17-.07-.24-.1-.14-.26-.22-.42-.2-.14.02-.25.12-.31.25-.02.05-.03.11-.03.17,0,.36,0,2.22,0,2.85,0,.26.22.47.47.44.01,0,.02,0,.03,0,.12-.02.22-.12.29-.23.05-.08.07-.16.06-.21"/>
  </g>
  <path class="cls-1" d="M11.39.83c0-.16-.04-.31-.13-.45-.18-.27-.49-.42-.8-.37-.25.04-.47.22-.59.47-.05.1-.06.21-.06.32,0,.68,0,4.15,0,5.34,0,.48.4.87.88.83.02,0,.04,0,.05,0,.22-.04.42-.23.54-.43.09-.15.13-.3.1-.39"/>
  <path class="cls-1" d="M5.88,3.27c-.08,0-.17.01-.24.03-.14.05-.22.13-.2.21.02.07.12.13.25.16.05.01.11.02.17.02.36,0,2.22,0,2.85,0,.26,0,.47-.11.44-.23,0,0,0-.01,0-.01-.02-.06-.12-.11-.23-.14-.08-.02-.16-.04-.21-.03"/>
</svg>