<?xml version="1.0" encoding="UTF-8"?>
<svg id="Camada_1" data-name="Camada 1" xmlns="http://www.w3.org/2000/svg" viewBox="0 0 426.16 207.98">
  <defs>
    <style>
      .cls-1 {
        letter-spacing: -.1em;
      }

      .cls-2 {
        font-family: ProximaNova-Bold, 'Proxima Nova';
        font-size: 103.58px;
        font-weight: 700;
      }

      .cls-2, .cls-3 {
        fill: #cc1236;
      }

      .cls-4 {
        letter-spacing: 0em;
      }

      .cls-3 {
        stroke-width: 0px;
      }
    </style>
  </defs>
  <text class="cls-2" transform="translate(0 169.87) scale(.98 1)"><tspan x="0" y="0">BC</tspan><tspan class="cls-1" x="139.83" y="0">.</tspan><tspan class="cls-4" x="156.3" y="0">TEAM</tspan></text>
  <g>
    <g>
      <path class="cls-3" d="M150.22,56.46c0,1.26.33,2.52,1.01,3.57,1.41,2.15,3.86,3.34,6.21,2.94,1.99-.33,3.71-1.77,4.6-3.76.35-.79.5-1.66.5-2.53,0-5.46,0-33.16,0-42.69,0-3.82-3.15-6.97-6.87-6.63-.16.01-.3.03-.41.05-1.7.32-3.28,1.85-4.22,3.43-.7,1.18-1.04,2.39-.82,3.15"/>
      <path class="cls-3" d="M136.38,49.55c0,.85.22,1.7.68,2.41.95,1.45,2.61,2.25,4.19,1.99,1.34-.23,2.5-1.19,3.1-2.54.24-.53.34-1.12.34-1.71,0-3.69,0-22.39,0-28.82,0-2.58-2.13-4.7-4.64-4.48-.11,0-.2.02-.28.03-1.15.21-2.21,1.25-2.85,2.32-.47.8-.7,1.61-.55,2.13"/>
      <path class="cls-3" d="M168.08,62.06c0,1.6.41,3.18,1.28,4.51,1.79,2.72,4.88,4.22,7.84,3.72,2.51-.42,4.69-2.24,5.81-4.75.45-1,.63-2.1.63-3.19,0-6.9,0-41.9,0-53.94,0-4.83-3.98-8.8-8.68-8.38-.2.02-.38.04-.52.06-2.14.4-4.14,2.34-5.33,4.34-.88,1.49-1.32,3.02-1.03,3.98"/>
    </g>
    <g>
      <path class="cls-3" d="M266.64,13.94c0-1.26-.33-2.52-1.02-3.57-1.42-2.15-3.87-3.33-6.21-2.94-1.99.34-3.71,1.77-4.59,3.76-.35.79-.5,1.66-.5,2.53,0,5.46.03,33.16.04,42.69,0,3.82,3.16,6.96,6.87,6.62.16-.01.3-.03.41-.05,1.7-.32,3.28-1.85,4.22-3.44.7-1.18,1.04-2.39.81-3.15"/>
      <path class="cls-3" d="M280.48,20.83c0-.85-.22-1.7-.69-2.41-.96-1.45-2.61-2.25-4.19-1.98-1.34.23-2.5,1.2-3.1,2.54-.24.53-.34,1.12-.34,1.71,0,3.69.02,22.39.03,28.82,0,2.58,2.13,4.7,4.64,4.47.11,0,.2-.02.28-.03,1.15-.22,2.21-1.25,2.85-2.32.47-.8.7-1.61.55-2.13"/>
    </g>
    <path class="cls-3" d="M248.77,8.35c0-1.6-.41-3.18-1.28-4.51-1.79-2.72-4.89-4.21-7.85-3.71-2.51.42-4.68,2.24-5.8,4.75-.44,1-.63,2.1-.63,3.19,0,6.9.04,41.9.05,53.94,0,4.83,3.99,8.8,8.69,8.37.2-.02.38-.04.52-.06,2.14-.4,4.14-2.34,5.33-4.34.88-1.49,1.32-3.02,1.03-3.98"/>
    <path class="cls-3" d="M194.4,33.08c-.83,0-1.66.11-2.35.35-1.42.49-2.2,1.34-1.94,2.15.22.69,1.17,1.28,2.48,1.59.52.12,1.09.17,1.67.17,3.6,0,21.87,0,28.15,0,2.52,0,4.59-1.09,4.37-2.38,0-.05-.02-.1-.03-.14-.21-.59-1.22-1.13-2.27-1.46-.78-.24-1.57-.36-2.08-.28"/>
  </g>
</svg>